Patient4_TMGait_0pt7_02_left_49_GRF.mot
version=1
nRows=58
nColumns=19
inDegrees=no
endheader
time	F1x	F1y	F1z	M1x	M1y	M1z	F2x	F2y	F2z	M2x	M2y	M2z	EC1x	EC1y	EC1z	EC2x	EC2y	EC2z
56.09	5.9032	10.3974	2.5694	-2.5159	-1.2006	0.88972	-59.8434	792.6134	-67.9704	313.2459	95.0674	842.1476	-0.0592	0.0182	-0.0073	-0.0462	0.0165	0.9585
56.1017	3.7802	8.1865	1.8892	-2.1203	-1.0346	2.0187	-53.1191	788.66	-70.2633	311.8113	94.289	834.0517	-0.0592	0.0182	-0.0073	-0.0462	0.0165	0.9585
56.1134	1.9852	6.3406	1.308	-1.802	-0.88441	2.9862	-46.7901	782.8564	-71.9078	309.5689	92.902	823.6427	-0.0592	0.0182	-0.0073	-0.0462	0.0165	0.9585
56.1251	0.5971	4.9831	0.86201	-1.5824	-0.77114	3.7848	-41.1195	775.2362	-72.734	306.5262	90.8806	811.116	-0.0592	0.0182	-0.0073	-0.0462	0.0165	0.9585
56.1369	-0.35914	4.1022	0.55041	-1.4531	-0.69255	4.3959	-36.1484	766.0191	-72.7647	302.7824	88.3022	796.8175	-0.0592	0.0182	-0.0073	-0.0462	0.0165	0.9585
56.1486	-0.96812	3.6308	0.35385	-1.3911	-0.64997	4.8498	-31.771	755.4744	-72.1206	298.4727	85.2782	781.0763	-0.0592	0.0182	-0.0073	-0.0462	0.0165	0.9585
56.1603	-1.3031	3.4237	0.24033	-1.3572	-0.62704	5.1048	-27.8284	743.9302	-70.9662	293.7548	81.934	764.2578	-0.0592	0.0182	-0.0073	-0.0462	0.0165	0.9585
56.172	-1.4638	3.3217	0.19041	-1.3094	-0.6286	5.1526	-24.1177	731.6995	-69.4481	288.7853	78.3519	746.674	-0.0592	0.0182	-0.0073	-0.0462	0.0165	0.9585
56.1837	-1.5144	3.129	0.18328	-1.2037	-0.65062	4.8992	-20.4463	719.1534	-67.6899	283.7395	74.5858	728.6869	-0.0592	0.0182	-0.0073	-0.0462	0.0165	0.9585
56.1954	-1.53	2.6492	0.19994	-0.98991	-0.69344	4.2207	-16.6024	706.7674	-65.7846	278.8286	70.6529	710.7164	-0.0592	0.0182	-0.0073	-0.0462	0.0165	0.9585
56.2071	-1.5195	1.6989	0.22704	-0.61658	-0.7437	2.9547	-12.4261	695.1405	-63.8205	274.3073	66.5797	693.2937	-0.0592	0.0182	-0.0073	-0.0462	0.0165	0.9585
56.2189	-1.4944	0.11156	0.24096	-0.036207	-0.77231	0.93843	-7.7819	685.0059	-61.8808	270.4756	62.4064	677.0822	-0.0592	0.0182	-0.0073	-0.0462	0.0165	0.9585
56.2306	-1.4124	-2.2099	0.22984	0.77782	-0.74653	-1.9337	-2.6165	677.1551	-60.0381	267.6464	58.1925	662.8285	-0.0592	0.0182	-0.0073	-0.0462	0.0165	0.9585
56.2423	-1.2205	-5.2355	0.15771	1.8105	-0.60578	-5.6135	3.0501	672.2919	-58.3606	266.0906	54.0112	651.2065	-0.0592	0.0182	-0.0073	-0.0462	0.0165	0.9585
56.254	-0.84169	-8.7339	5.9773e-05	2.9815	-0.29366	-9.827	9.1196	670.8816	-56.9108	265.9741	49.9499	642.7004	-0.0592	0.0182	-0.0073	-0.0462	0.0165	0.9585
56.2657	-0.19012	-12.135	-0.28449	4.0973	0.26402	-13.911	15.4064	672.945	-55.7845	267.2769	46.1485	637.4114	-0.0592	0.0182	-0.0073	-0.0462	0.0165	0.9585
56.2774	0.827	-14.4269	-0.72612	4.816	1.1309	-16.6861	21.6745	677.9579	-55.0518	269.754	42.7348	634.9548	-0.0592	0.0182	-0.0073	-0.0462	0.0165	0.9585
56.2891	2.2635	-14.0245	-1.3423	4.6031	2.3466	-16.309	27.6631	684.8719	-54.7853	272.944	39.8498	634.495	-0.0592	0.0182	-0.0073	-0.0462	0.0165	0.9585
56.3009	4.1264	-8.7062	-2.1164	2.71	3.893	-10.1863	33.1108	692.1966	-54.9941	276.2139	37.5802	634.8026	-0.0592	0.0182	-0.0073	-0.0462	0.0165	0.9585
56.3126	6.299	4.3541	-2.9714	-1.8106	5.6414	4.9939	37.7778	698.2	-55.6278	278.8389	35.9593	634.4475	-0.0592	0.0182	-0.0073	-0.0462	0.0165	0.9585
56.3243	8.4737	28.386	-3.7539	-10.0348	7.3024	33.0075	41.4991	701.1063	-56.5385	280.0953	34.9212	631.956	-0.0592	0.0182	-0.0073	-0.0462	0.0165	0.9585
56.336	10.0844	66.4936	-4.181	-22.9858	8.3488	77.5006	44.1916	699.2977	-57.4918	279.3423	34.3077	625.9808	-0.0592	0.0182	-0.0073	-0.0462	0.0165	0.9585
56.3477	10.2121	120.7729	-3.8351	-41.3303	7.9737	140.9556	45.902	691.4102	-58.1619	276.0616	33.8431	615.3485	-0.0592	0.0182	-0.0073	-0.0462	0.0165	0.9585
56.3594	7.5469	190.8942	-2.1116	-64.8992	5.0256	223.0275	46.7256	676.279	-58.1746	269.8322	33.1879	599.0439	-0.0592	0.0182	-0.0073	-0.0462	0.0165	0.9585
56.3711	0.48229	272.666	1.6654	-92.21	-1.8052	318.8485	46.7888	652.8315	-57.1698	260.2828	32.0064	576.0932	-0.0592	0.0182	-0.0073	-0.0462	0.0165	0.9585
56.3829	-11.5319	357.7496	8.058	-120.3964	-13.322	418.6386	46.1414	620.1625	-54.8874	247.1075	30.0706	545.6444	-0.0592	0.0182	-0.0073	-0.0462	0.0165	0.9585
56.3946	-26.3733	435.9335	17.4046	-146.0326	-29.0924	510.1558	44.7684	577.7547	-51.2878	230.1439	27.3627	507.1504	-0.0592	0.0182	-0.0073	-0.0462	0.0165	0.9585
56.4063	-41.2025	501.0188	28.8176	-167.1142	-47.1183	585.6528	42.5495	525.8777	-46.6022	209.5051	24.1267	460.773	-0.0592	0.0182	-0.0073	-0.0462	0.0165	0.9585
56.418	-54.5175	553.5228	40.8357	-183.8918	-65.1827	645.3955	39.3098	465.8187	-41.2467	185.6759	20.7684	407.5735	-0.0592	0.0182	-0.0073	-0.0462	0.0165	0.9585
56.4297	-65.2924	597.1883	51.9073	-197.7313	-81.1929	693.6258	34.9401	399.8808	-35.6824	159.5257	17.696	349.5217	-0.0592	0.0182	-0.0073	-0.0462	0.0165	0.9585
56.4414	-73.0503	635.4848	61.0377	-209.8838	-93.8503	734.4858	29.4694	331.1265	-30.2653	132.2319	15.178	289.2476	-0.0592	0.0182	-0.0073	-0.0462	0.0165	0.9585
56.4531	-77.4731	669.9973	67.6508	-220.9394	-102.4312	769.8876	23.092	263.0955	-25.1778	105.1781	13.2771	229.8019	-0.0592	0.0182	-0.0073	-0.0462	0.0165	0.9585
56.4649	-78.5928	700.544	71.8302	-230.842	-107.0746	799.7677	16.2725	199.373	-20.5256	79.7867	11.8977	174.2528	-0.0592	0.0182	-0.0073	-0.0462	0.0165	0.9585
56.4766	-76.6659	726.2927	74.1616	-239.2709	-108.5588	823.2832	9.6918	143.0721	-16.3409	57.3052	10.8013	125.2585	-0.0592	0.0182	-0.0073	-0.0462	0.0165	0.9585
56.4883	-72.2407	746.5143	75.2386	-245.9264	-107.7726	839.8562	4.1059	96.1846	-12.6386	38.5502	9.7162	84.4728	-0.0592	0.0182	-0.0073	-0.0462	0.0165	0.9585
56.5	-65.9365	760.9704	75.6796	-250.6811	-105.6286	849.4692	0.0096793	59.4014	-9.4052	23.8183	8.4488	52.4592	-0.0592	0.0182	-0.0073	-0.0462	0.0165	0.9585
56.5117	-58.4822	769.9258	75.7582	-253.5994	-102.699	852.6785	-2.4824	32.3055	-6.6173	12.963	6.9474	28.8326	-0.0592	0.0182	-0.0073	-0.0462	0.0165	0.9585
56.5234	-50.4704	773.9014	75.7056	-254.8531	-99.4422	850.2713	-3.6139	13.7718	-4.2793	5.5404	5.3128	12.642	-0.0592	0.0182	-0.0073	-0.0462	0.0165	0.9585
56.5351	-42.4774	773.6946	75.3962	-254.7304	-95.9317	843.2885	-3.7401	2.2769	-2.4272	0.94073	3.7236	2.5662	-0.0592	0.0182	-0.0073	-0.0462	0.0165	0.9585
56.5469	-34.8383	770.2173	74.7276	-253.5692	-92.1691	832.8271	-3.3228	-3.8312	-1.0985	-1.5011	2.3868	-2.8068	-0.0592	0.0182	-0.0073	-0.0462	0.0165	0.9585
56.5586	-27.7671	764.5338	73.4571	-251.7581	-87.9673	820.1214	-2.6494	-6.1883	-0.26357	-2.4413	1.3907	-4.9135	-0.0592	0.0182	-0.0073	-0.0462	0.0165	0.9585
56.5703	-21.3294	757.6221	71.5306	-249.6439	-83.2818	806.2315	-1.9551	-6.1837	0.21249	-2.4397	0.69734	-4.9514	-0.0592	0.0182	-0.0073	-0.0462	0.0165	0.9585
56.582	-15.608	750.2863	69.0259	-247.4942	-78.215	792.0533	-1.3302	-4.9189	0.41222	-1.9379	0.27291	-3.8902	-0.0592	0.0182	-0.0073	-0.0462	0.0165	0.9585
56.5937	-10.6017	743.143	66.1644	-245.494	-72.9995	778.2335	-0.84253	-3.1321	0.46276	-1.2337	0.028367	-2.3502	-0.0592	0.0182	-0.0073	-0.0462	0.0165	0.9585
56.6054	-6.3369	736.733	63.2553	-243.7895	-67.9606	765.3497	-0.47661	-1.3349	0.41184	-0.52714	-0.076293	-0.78586	-0.0592	0.0182	-0.0073	-0.0462	0.0165	0.9585
56.6171	-2.7063	731.5572	60.5121	-242.5136	-63.296	753.8923	-0.2323	0.2302	0.33362	0.083583	-0.11069	0.6086	-0.0592	0.0182	-0.0073	-0.0462	0.0165	0.9585
56.6289	0.38648	728.0189	58.139	-241.7656	-59.189	744.2754	-0.065325	1.4363	0.2457	0.55179	-0.10589	1.706	-0.0592	0.0182	-0.0073	-0.0462	0.0165	0.9585
56.6406	3.0826	726.347	56.1593	-241.6003	-55.6283	736.6702	0.028466	2.2885	0.17603	0.87988	-0.092844	2.5056	-0.0592	0.0182	-0.0073	-0.0462	0.0165	0.9585
56.6523	5.5273	726.5611	54.6083	-242.0064	-52.6079	731.0709	0.088806	2.8251	0.1288	1.0867	-0.08653	3.019	-0.0592	0.0182	-0.0073	-0.0462	0.0165	0.9585
56.664	7.8857	728.3921	53.4199	-242.8918	-50.0087	727.1444	0.11649	3.1212	0.093274	1.2034	-0.07651	3.3159	-0.0592	0.0182	-0.0073	-0.0462	0.0165	0.9585
56.6757	10.2698	731.3539	52.5924	-244.0884	-47.7836	724.3855	0.13798	3.253	0.077144	1.262	-0.074668	3.4528	-0.0592	0.0182	-0.0073	-0.0462	0.0165	0.9585
56.6874	12.7744	734.7621	52.1027	-245.3633	-45.8665	722.0961	0.14541	3.2944	0.063195	1.2902	-0.062581	3.5075	-0.0592	0.0182	-0.0073	-0.0462	0.0165	0.9585
56.6991	15.4255	737.8786	51.9415	-246.4635	-44.2285	719.5503	0.14617	3.2876	0.05447	1.3052	-0.046057	3.516	-0.0592	0.0182	-0.0073	-0.0462	0.0165	0.9585
56.7109	18.2149	740.0249	52.0921	-247.1543	-42.8496	716.0973	0.12861	3.2733	0.031567	1.3185	-0.0050548	3.52	-0.0592	0.0182	-0.0073	-0.0462	0.0165	0.9585
56.7226	21.1427	740.7529	52.494	-247.2739	-41.6769	711.326	0.094092	3.2621	0.0021829	1.333	0.051198	3.5322	-0.0592	0.0182	-0.0073	-0.0462	0.0165	0.9585
56.7343	24.1588	739.9057	53.1321	-246.7618	-40.7096	705.1325	0.043808	3.2362	-0.045825	1.3392	0.13357	3.5349	-0.0592	0.0182	-0.0073	-0.0462	0.0165	0.9585
56.746	27.2265	737.6532	53.9462	-245.6691	-39.9063	697.7412	-0.020544	3.167	-0.097115	1.3229	0.22887	3.4862	-0.0592	0.0182	-0.0073	-0.0462	0.0165	0.9585
56.7577	30.2811	734.4299	54.9414	-244.1311	-39.2912	689.6476	-0.094638	2.9803	-0.16717	1.2547	0.35024	3.3002	-0.0592	0.0182	-0.0073	-0.0462	0.0165	0.9585
